<svg xmlns="http://www.w3.org/2000/svg" width="100" height="100" viewBox="0 0 100 100" fill="none"><path d="M67.7419 27.4193H87.0968V40.3225H67.7419V27.4193Z" fill="#90DC33"></path><path d="M91.9354 58.0645H62.9032C62.0133 58.0645 61.2903 57.3415 61.2903 56.4516V46.7742C61.2903 45.8842 62.0133 45.1613 62.9032 45.1613H91.9354C92.8254 45.1613 93.5483 45.8842 93.5483 46.7742V56.4516C93.5483 57.3415 92.8254 58.0645 91.9354 58.0645Z" fill="#90DC33"></path><path d="M32.258 77.4193C22.4759 77.4193 14.5161 69.4595 14.5161 59.6774C14.5161 49.8952 22.4759 41.9354 32.258 41.9354C42.0402 41.9354 50 49.8952 50 59.6774C50 69.4595 42.0402 77.4193 32.258 77.4193Z" fill="#90DC33"></path><path d="M67.7419 32.2581H87.0968V35.4839H67.7419V32.2581Z" fill="#454C52"></path><path d="M67.7419 25.8064H87.0968V29.0322H67.7419V25.8064Z" fill="#454C52"></path><path d="M95.1613 38.7097H93.5484V14.2389L87.9985 18.9871L82.781 15.8613L77.4068 19.0871L72.0325 15.8613L66.826 18.9871L61.2903 14.2287V38.7097H60.5516L59.5593 25.8065H51.6129V17.7419C51.6129 7.95977 43.6531 0 33.871 0C24.0888 0 16.129 7.95977 16.129 17.7419V25.8065H4.96472L0 87.0968V90.3226H54.8387V95.1613C54.8387 97.8287 57.01 100 59.6774 100H95.1613C97.8287 100 100 97.8287 100 95.1613V43.5484C100 40.881 97.8287 38.7097 95.1613 38.7097ZM64.5161 21.2552L66.4905 22.95L72.0325 19.6242L77.4068 22.85L82.7826 19.6242L88.3324 22.95L90.3226 21.245V38.7097H64.5161V21.2552ZM19.3548 17.7419C19.3548 9.73727 25.8679 3.22581 33.871 3.22581C41.8741 3.22581 48.3871 9.73727 48.3871 17.7419V25.8065H19.3548V17.7419ZM96.7742 95.1613C96.7742 96.0512 96.0496 96.7742 95.1613 96.7742H59.6774C58.7891 96.7742 58.0645 96.0512 58.0645 95.1613V87.0968H3.23053L7.93851 29.0323H16.129V32.2581H12.9032V35.4839H22.5806V32.2581H19.3548V29.0323H48.3871V32.2581H45.1613V35.4839H54.8387V32.2581H51.6129V29.0323H56.5713L57.3612 39.3019C55.8594 40.1241 54.8387 41.7197 54.8387 43.5484V83.871H58.0645V43.5484C58.0645 42.6585 58.7891 41.9355 59.6774 41.9355H95.1613C96.0496 41.9355 96.7742 42.6585 96.7742 43.5484V95.1613Z" fill="#454C52"></path><path d="M32.258 54.8387C33.1464 54.8387 33.8709 55.5617 33.8709 56.4516H37.0967C37.0967 54.352 35.7437 52.5776 33.8709 51.9098V48.3871H30.6451V51.9098C28.7723 52.5776 27.4193 54.352 27.4193 56.4516C27.4193 59.119 29.5906 61.2903 32.258 61.2903C33.1464 61.2903 33.8709 62.0133 33.8709 62.9032C33.8709 63.7931 33.1464 64.5161 32.258 64.5161C31.3697 64.5161 30.6451 63.7931 30.6451 62.9032H27.4193C27.4193 65.0028 28.7723 66.7772 30.6451 67.445V70.9677H33.8709V67.445C35.7437 66.7772 37.0967 65.0028 37.0967 62.9032C37.0967 60.2358 34.9255 58.0645 32.258 58.0645C31.3697 58.0645 30.6451 57.3415 30.6451 56.4516C30.6451 55.5617 31.3697 54.8387 32.258 54.8387Z" fill="#454C52"></path><path d="M61.2903 93.5483H93.5483V61.2903H61.2903V93.5483ZM64.5161 83.8709H70.9677V90.3225H64.5161V83.8709ZM80.6451 74.1935V80.6451H74.1935V74.1935H80.6451ZM74.1935 70.9677V64.5161H80.6451V70.9677H74.1935ZM83.8709 74.1935H90.3225V80.6451H83.8709V74.1935ZM80.6451 83.8709V90.3225H74.1935V83.8709H80.6451ZM70.9677 80.6451H64.5161V74.1935H70.9677V80.6451ZM83.8709 90.3225V83.8709H90.3225V90.3225H83.8709ZM90.3225 70.9677H83.8709V64.5161H90.3225V70.9677ZM70.9677 64.5161V70.9677H64.5161V64.5161H70.9677Z" fill="#454C52"></path></svg>